<svg width="24" height="24" viewBox="0 0 24 24" fill="none" xmlns="http://www.w3.org/2000/svg">
<path d="M15.5 1H7.5C6.83696 1 6.20107 1.26339 5.73223 1.73223C5.26339 2.20107 5 2.83696 5 3.5V20.5C5 21.163 5.26339 21.7989 5.73223 22.2678C6.20107 22.7366 6.83696 23 7.5 23H15.5C16.163 23 16.7989 22.7366 17.2678 22.2678C17.7366 21.7989 18 21.163 18 20.5V3.5C18 2.83696 17.7366 2.20107 17.2678 1.73223C16.7989 1.26339 16.163 1 15.5 1ZM11.5 22C10.67 22 10 21.33 10 20.5C10 19.67 10.67 19 11.5 19C12.33 19 13 19.67 13 20.5C13 21.33 12.33 22 11.5 22ZM16 18H7V4H16V18Z" fill="black"/>
</svg>
